<?xml version="1.0" encoding="UTF-8"?><svg id="a" xmlns="http://www.w3.org/2000/svg" viewBox="0 0 210.5 103.7"><defs><style>.b{fill:#ff4d00;}</style></defs><path class="b" d="M112.8,51.9c0,13.3,0,26.6,0,39.8-.3,2.2-2.8,3.4-4,5.1-2.1,2.1-4.2,4.1-6.2,6.3-.4.4-.7.6-1.2.6-12.2,0-24.5,0-36.7,0-10.7,0-21.5,0-32.2,0-.6,0-.9-.1-.9-.8,0-6.6,0-13.3,0-19.9,0-.3.1-.6.5-.7,4.8-2.5,9.8-4.7,14.1-8,.2-.2.4-.6.4-1,0-5.7,0-11.3,0-17,0-9.8,0-19.6,0-29.4.3-19.5-3-12.2,10.4-26.2C57.2.2,57.6,0,58,0c14.3,0,28.7,0,43,0,.4,0,.8.1,1.1.5,2,2.1,4,4,6.1,6.1,1.3,1.7,4.1,3,4.5,5.2,0,13.3,0,26.7,0,40h0ZM68.7,21.6c0,19.8,0,39.6,0,59.4,0,.7.2.9.9.9,6.8,0,13.6,0,20.5,0,.6,0,.8-.2.8-.8,0-19.5.1-38.9,0-58.4,0-1,0-1-1-1-7,0-14,0-21,0Z"/><path class="b" d="M155.7,32c3-7.9,8.8-24.6,8.8-24.6h46.1c0,0-8.7,13.1-14.7,18.3-4.6,3.8-9.2,7.6-14.6,10.1-5.9,3.1-12,5.5-18.2,7.9-2.1.9-4.2,1.7-6.3,2.8-6.8,3.5-8,12.6-8,14.6s0,7.9,3.2,10.4c5.8,4.6,11.5,7.9,17.9,10.8.5.3.5,1,.5,1.5,0,6.3,0,12.7,0,19,0,1,0,1-1,1-16.3,0-32.6.1-48.9,0,0-7,0-13.8,0-20.8,0-.9,0-.9.9-.9,3.6,0,7.2,0,10.8,0,1,0,1,0,1-1,0-17.9,0-35.8,0-53.7,0-.6-.2-.7-.8-.7-3.7,0-7.4,0-11.1,0-.6,0-.8-.2-.7-.8,0-4.1,0-8.2,0-12.3,0-.4.2-.8.4-1,1-1,2-1.9,3-2.9,2.7-2.9,5.5-5.5,8.2-8.4.8-.8,1.5-1.1,2.6-1,6.6,0,13.1,0,19.7,0,.9,0,1,0,1,1,0,10.3,0,20.6,0,30.9,0,0,.2,0,.2,0Z"/><path class="b" d="M38.9,34.6C10,15.1-1.5,34.9.2,0h47c-1.7,2.5-8.5,7.1-8.3,9.6.3,8.3,0,16.7,0,25Z"/></svg>