<?xml version="1.0" encoding="UTF-8"?><svg id="a" xmlns="http://www.w3.org/2000/svg" viewBox="0 0 250 250"><path d="M94.02125,127.6135c-.68195.23462-1.28157.45309-1.88881.64788-4.01177,1.28683-7.94408,2.79934-11.91905,4.19056-1.39481.48818-2.78967.97628-4.18686,1.45759-.8646.29783-1.68342.6856-2.4879,1.12314-4.02907,2.19137-8.0009,4.48283-11.96678,6.78527-1.81144,1.05166-3.64774,2.06161-5.44107,3.14301-1.88022,1.13381-3.67258,2.40557-5.48031,3.65108-2.09245,1.44169-4.17453,2.89841-6.26019,4.34992-.20246.14089-.40088.28787-.59706.43745-.83319.63519-.82537.62445-1.69146.07719-3.1268-1.97583-6.26302-3.93639-9.44286-5.82654-2.56425-1.52426-5.11268-3.07528-7.68562-4.5846-.53153-.31181-.83869-.71392-1.0084-1.29047-.9041-3.07143-1.8687-6.12413-2.86421-9.16723-1.10323-3.3724-2.18857-6.75066-3.29749-10.12117-.09802-.29795-.13242-.56167-.04216-.85991.87805-2.90149,1.66138-5.82953,2.44961-8.75625.53815-1.99815,1.17265-3.97528,1.59911-5.99661.22495-1.0662.724-1.88871,1.35179-2.71962,1.99305-2.6379,3.95586-5.29879,5.91226-7.96409.4014-.54686.8463-.8504,1.5606-.946,3.07445-.41145,6.16639-.66034,9.2417-1.05569.3317-.04265.55142.04897.76716.30558,1.50894,1.79478,3.03893,3.57186,4.54775,5.36673,1.12783,1.34167,2.30241,2.64404,3.37812,4.02981.34236.44104.3747.44197.94049.22765,1.7983-.6812,3.59303-1.37183,5.38987-2.05689,2.55583-.97442,5.11297-1.94544,7.66729-2.9238.21289-.08155.38299-.11124.62544-.02746,1.95574.67583,3.92366,1.31628,5.88496,1.97612,4.22779,1.42238,8.48675,2.74671,12.75317,4.04689.53201.16212.87089.44136,1.13898.94138,3.50777,6.54258,6.7742,13.20923,10.19833,19.79464.28303.54435.54015,1.10218.85357,1.74443ZM92.45715,126.65768c.00322-.47608-.21599-.78912-.37694-1.1095-1.0633-2.11647-2.13869-4.22692-3.21927-6.33464-2.0148-3.92996-4.03536-7.85695-6.0556-11.78412-.09697-.18849-.16952-.40432-.44812-.50883-.59219.68223-1.19653,1.36372-1.78478,2.05883-1.97828,2.33765-3.95311,4.67822-5.92439,7.02178-.73115.86924-1.45354,1.74598-2.17113,2.62647-.56953.69883-.55572.71493.27304.99359.79458.26715,1.58419.5493,2.37393.83059,3.67048,1.30738,7.34423,2.60572,11.00872,3.92968,2.0859.75363,4.21076,1.39897,6.32453,2.27616ZM18.88747,123.13698c.03173.18484.03482.25772.05699.32424,1.9188,5.75515,3.79077,11.52535,5.57942,17.32243.27385.88753.28453.89183,1.12895.52478,3.82036-1.66064,7.66666-3.25956,11.51271-4.85934.5788-.24076,1.19463-.41283,1.82276-.80972-6.69036-4.23291-13.34787-8.35962-20.10084-12.50239ZM63.69182,100.30093c2.4784,6.16521,5.02892,12.26713,7.52756,18.53244,3.47964-4.34678,7.06519-8.43512,10.51838-12.58071-.09833-.18608-.17417-.24309-.27202-.27492-5.8998-1.91875-11.83519-3.72725-17.77392-5.67682ZM39.92135,136.23296c-4.85665,2.06262-9.63669,3.97527-14.37601,6.10591.63854.45798,16.59048,10.10461,16.88799,10.1939-.83743-5.40491-1.73857-10.76003-2.51198-16.29981ZM91.8036,127.28558c-6.69392-2.30655-13.31447-4.69292-19.94723-7.0777-.1062.35647-.02787.59887.02541.83372.84,3.70255,1.68227,7.40462,2.54011,11.10306.09707.41852.02745,1.0233.38868,1.19979.35231.1721.83395-.17424,1.24633-.32013,5.06597-1.79225,10.12779-3.59621,15.18945-5.40064.17437-.06216.37028-.09908.55724-.33811ZM38.90325,134.5306c.08006-.2074.02907-.2953-.01402-.3786-.87176-1.68506-1.73463-3.37484-2.62151-5.05193-1.81937-3.44047-3.65859-6.87048-5.46815-10.31606-.17482-.33287-.34863-.4419-.68635-.33074-.58429.19232-1.17086.37783-1.75369.57444-2.86892.96781-5.73747,1.93673-8.60416,2.91112-.21361.0726-.47081.0939-.64278.368,6.65347,4.01896,13.1994,8.12927,19.79066,12.22378ZM39.6725,95.10502c-.35513.02676-.71993.0427-1.08196.08339-2.56924.2887-5.13729.58821-7.7073.86983-.51721.05667-.89233.25021-1.2142.69014-2.05307,2.8061-4.13497,5.5911-6.20556,8.38439-.0694.09363-.16879.18869-.05148.3917.72059,0,1.47802-.00701,2.23528.0012,3.40489.03692,6.8097.08014,10.21459.11608.62386.00659.63529-.001.78057-.52807.85817-3.11333,1.91036-6.16594,2.88435-9.24302.07271-.22973.22351-.44261.1457-.76564ZM44.61961,122.85479c4.10876,2.61242,8.03571,5.10924,12.03169,7.64996,1.32354-5.33323,2.35022-10.62033,3.521-15.87595-.04633-.03287-.09265-.06573-.13898-.09861-5.08537,2.7465-10.17073,5.49298-15.41371,8.3246ZM44.56868,121.82443c5.10953-2.82076,10.31252-5.35394,15.37867-8.3141-3.61955-2.76104-7.22869-5.35426-10.92187-7.9691-1.48764,5.50031-2.92746,10.89438-4.45681,16.2832ZM40.81639,136.54859c.15486,1.13759.27201,2.11224.42241,3.08174.47569,3.06628.96433,6.13055,1.4469,9.19576.18009,1.14388.36561,2.28704.53048,3.43313.04754.33047.18025.37197.43605.21122.08341-.05241.16168-.11302.24216-.17007,3.52102-2.49626,7.03588-5.0014,10.64397-7.37201.11816-.07763.27373-.13212.29027-.35665-4.61284-2.64122-9.2425-5.29207-14.01225-8.02314ZM73.79024,133.37807c-.33731-2.24146-.96493-4.36236-1.441-6.51429-.47453-2.14496-.97427-4.28434-1.49651-6.57324-4.27203,3.58328-8.52518,6.95908-12.71014,10.69283,5.31073.81275,10.42875,1.59601,15.64765,2.3947ZM56.23956,143.8944c5.63172-3.24648,11.15861-6.54183,16.82207-9.55204-.04574-.20485-.15849-.18512-.2483-.19903-1.28968-.1997-2.57973-.39702-3.86945-.59646-1.87354-.28969-3.74724-.57844-5.62024-.87164-1.77653-.27811-3.55171-.56493-5.32865-.84036-.54727-.08482-.57795-.06246-.63755.50388-.12903,1.22609-.23709,2.45438-.36457,3.68064-.22683,2.1818-.39058,4.37019-.68811,6.54474-.05534.40454-.15403.81208-.0652,1.33026ZM56.51938,131.88628c-5.09229,1.25176-9.98113,2.73888-15.10046,4.02563,4.7164,2.68545,9.25993,5.27248,13.86848,7.89653.49446-3.98364.92817-7.84781,1.23198-11.92216ZM43.71817,121.08976c1.68469-5.22482,3.0913-10.50544,4.56511-15.88326-3.70915.39988-7.31533.83844-11.03383,1.35405,2.29466,4.85802,4.16921,9.77119,6.46872,14.52921ZM55.82357,131.12218c-.79437-.68515-11.22678-7.29842-11.77901-7.46761-.55171,1.91502-1.10905,3.82806-1.65332,5.74481-.5394,1.89957-1.12864,3.78679-1.58903,5.79854,5.07259-1.37634,10.01473-2.7173,15.02136-4.07574ZM57.72566,130.14373c4.10819-3.5606,8.25583-6.95212,12.44956-10.37283-.19799-.13468-.29545-.20697-.39849-.27017-1.91285-1.17358-3.82405-2.34986-5.74085-3.51696-.82136-.5001-1.64734-.99362-2.48585-1.46406-.37482-.21029-.4338-.16303-.53777.26047-.11166.45477-.21922.91063-.32171,1.36755-.98179,4.37702-1.82791,8.78383-2.88673,13.14406-.06237.25685-.15433.52081-.07817.85194ZM62.42523,100.22384c-1.25771.25342-12.03574,4.41907-12.57771,4.8673,3.57765,2.46609,7.02321,5.08264,10.62697,7.65511.75844-4.20803,1.18812-8.34576,1.95074-12.52241ZM39.9072,134.39156c.05543-.00281.11085-.00563.16627-.00844.06284-.18582.13278-.36958.1874-.55779.48818-1.68188.97677-3.36365,1.45907-5.04722.48909-1.70727.97491-3.4155,1.45425-5.12553.16299-.58145.15213-.58485-.40343-.81633-.09103-.03792-.18368-.07194-.27566-.10759-2.52846-.98016-5.05463-1.96631-7.58654-2.93746-1.00515-.38554-2.02307-.73778-3.03517-1.10518-.05506.04401-.11012.088-.16518.13201,2.75931,5.17747,5.55096,10.33811,8.19898,15.57354ZM22.5509,107.13863c-1.21629,4.81429-2.46117,9.46066-3.84584,14.21202,3.86418-1.29513,7.58737-2.543,11.41039-3.82434-2.53201-3.48918-4.945-6.92345-7.56456-10.38768ZM42.86604,121.90833c.04694-.04127.09387-.08254.14081-.12383-2.15379-4.74823-4.0255-9.61929-6.33212-14.45908-1.8967,3.4263-3.58714,6.80346-5.24092,10.2458,3.86257,1.46537,7.6474,2.90124,11.43222,4.33711ZM35.97991,106.53171c-4.29117.07096-8.55176-.16763-12.97741-.08078,2.74023,3.44159,5.06694,6.98852,7.68552,10.35756.49902-.68529,5.14091-9.67977,5.29189-10.27678ZM63.15267,101.36653c-.1658.10722-.15395.28483-.1785.44588-.16339,1.07182-.33319,2.14271-.48637,3.216-.37943,2.65869-.74108,5.32-1.13835,7.97598-.05.33429.09549.4254.31844.55973,2.0694,1.24672,4.1343,2.50092,6.19999,3.75379.75149.4558,1.50159.91389,2.28041,1.38802-.13056-.89951-5.98228-15.37661-6.99562-17.33939ZM37.38837,105.59154c1.21839-.14276,2.33323-.28389,3.45051-.402,2.00836-.21231,4.00168-.55391,6.01841-.6946.26352-.01839.6368.07881.75433-.17115.1362-.28967-.22955-.49404-.36483-.74187-.0116-.02126-.03077-.03844-.04667-.05731-2.09839-2.48907-4.19632-4.97854-6.29668-7.46595-.1036-.12269-.16539-.31542-.46657-.27419-1.08577,3.19609-2.11217,6.44077-3.0485,9.80708Z"/><path d="M99.87099,109.93699c0-4.00032-.00005-8.00062.00015-12.00094,0-.19753.00569-.39513.00242-.59258-.0047-.28324.141-.40079.41234-.39068.07395.00275.14813-.00171.22221-.00152,2.7902.00729,5.58104-.01914,8.37038.03383,1.93896.03681,3.81231.47064,5.58022,1.28452,1.84339.84864,3.10266,2.31032,4.12066,4.01508,1.38765,2.32382,2.01903,4.83606,2.01446,7.54268-.00315,1.86826-.11538,3.70907-.91633,5.42009-1.57047,3.35489-3.8161,6.03929-7.47453,7.25582-1.01699.33817-2.07103.44795-3.13138.45557-2.7902.02004-5.58062.01292-8.37095.01426-.82354.0004-.82943-.00321-.82986-.81296-.00216-4.07439-.001-8.14878-.001-12.22318h.0012ZM105.73543,111.29043c.00607,0,.01214,0,.01822,0,0,2.04876-.00418,4.09752.00282,6.14625.00185.53728.01769.55188.53196.55411.93783.00406,1.87944.03944,2.8129-.0285,2.19111-.15946,3.91047-1.14368,4.96894-3.10852.66314-1.23099.9434-2.58637,1.03713-3.97413.14549-2.15377-.47296-4.13595-1.37985-6.05611-.818-1.73195-2.25727-2.60675-4.04834-3.02359-1.12124-.26095-2.26083-.12593-3.39235-.15251-.61305-.0144-.6235.00909-.63107.61479-.01386,1.10951.03668,2.21779.06584,3.32665.04994,1.89933.0138,3.80092.0138,5.70157Z"/><path d="M163.08042,115.94856c.59486-1.88188,1.17756-3.58396,1.66932-5.31192.87723-3.08243,1.81394-6.14608,2.77601-9.20249.38491-1.22276.77011-2.44546,1.1498-3.66985.23632-.76211.28303-.80484,1.07591-.80891,1.23479-.00634,2.46958-.01349,3.70435-.01045.62049.00153.66398.0341.47552.62815-.68602,2.16233-1.20784,4.37128-1.89808,6.53304-1.10986,3.4759-2.17013,6.9676-3.25704,10.45085-.63899,2.04773-1.43732,4.04277-2.02502,6.10775-.1619.56893-.36236,1.1282-.49679,1.70319-.09507.4067-.30035.58946-.71299.5897-1.704.00095-3.40812.00073-5.11187.02543-.40568.00588-.56001-.17441-.66195-.53206-.71628-2.51287-1.46369-5.01694-2.16783-7.53314-.55885-1.99703-1.24673-3.95171-1.87147-5.92707-1.20428-3.80786-2.31536-7.64529-3.63595-11.41627-.1866-.53286-.12872-.61162.41804-.61544,1.4323-.01001,2.86495.00916,4.2969-.01548.4376-.00754.60181.19254.71711.57046.51777,1.69724,1.06206,3.38639,1.5845,5.08223.84148,2.73151,1.68628,5.46213,2.50388,8.20082.4368,1.46307.81866,2.94252,1.22789,4.41386.05219.18769.11999.37104.23976.73762Z"/><path d="M127.18948,108.4366c-.68108-1.15886-1.31332-2.24351-1.95579-3.32209-.18255-.3065-.10785-.48466.20597-.63458,1.76244-.84195,3.54266-1.57507,5.52609-1.78518,1.44527-.1531,2.85995-.11675,4.25938.19737,1.7564.39424,3.2803,1.2088,4.35138,2.72508.6451.91326,1.00405,1.93906,1.02865,3.0412.07493,3.35663.17791,6.71499.07945,10.07149-.03552,1.21104.09049,2.4139.03728,3.62127-.02448.55545-.05095.60552-.58471.61235-1.06193.0136-2.12418.00174-3.18612.01482-.34707.00428-.54096-.10859-.62738-.47144-.14643-.61489-.34396-1.21761-.52167-1.83122-.32788.02841-.45916.26079-.62045.42901-1.36761,1.42629-3.10043,2.18118-5.00678,2.28451-2.84291.15411-5.68191-1.17992-6.42296-4.69791-.30329-1.43982-.37361-2.89505.27403-4.28073.91737-1.96273,2.48792-3.13552,4.55552-3.67531.5512-.14391,1.12045-.15904,1.69075-.15618,1.40782.00704,2.81573.00163,4.22357-.00553.63816-.00324.63985-.01049.65-.6648.00421-.27161-.00614-.54348-.00056-.81504.01871-.91014-.45503-1.48036-1.26073-1.80875-.2261-.09215-.46967-.1588-.71143-.19225-1.55814-.21554-3.09818-.18485-4.58248.41304-.50642.204-.94174.53014-1.40101.93088ZM135.1401,115.17413c0-.24691.00003-.49383-.00003-.74074,0-.04938.00165-.09886-.00078-.14812-.02422-.49256-.06507-.55342-.56816-.55308-.46719.00032-.93422.05392-1.40154.08014-1.16435.06532-2.21912.46095-3.1648,1.1207-.76315.53242-1.02653,1.48649-.72627,2.37665.32009.94901,1.09272,1.55955,2.02507,1.56497,1.17986.00686,2.1183-.54444,2.97355-1.30268.73271-.6496.98564-1.45075.86297-2.39782Z"/><path d="M191.73401,105.04357c.36464.01344.47279-.17632.62116-.29364,1.21926-.9642,2.56624-1.72311,4.10435-1.94185,2.48596-.35354,4.82565-.01026,6.70386,1.89479.81542.82707,1.16258,1.87968,1.45797,2.95178.23589.85623.33201,1.73368.34985,2.63037.07518,3.77603.10122,7.55217.10321,11.32869.00011.19758.004.39516.00266.59272-.005.73798-.01962.75933-.73268.76369-1.03721.00636-2.07452.00179-3.11179.00248-.49393.00033-.98808-.00647-1.48172.0059-.36569.00917-.56283-.12694-.54077-.5168.01115-.19696.00266-.39503.00262-.59261-.00076-3.82796-.0036-7.65593-.00071-11.48389.00056-.73639-.18288-1.41625-.58831-2.02853-.65967-.99627-1.89357-1.4337-3.05009-1.13184-1.3964.36448-2.20282,1.35432-2.75193,2.59208-.35161.79254-.51179,1.63373-.50399,2.5185.02894,3.28436.02416,6.56902.03207,9.85356.00011.04939.00074.0988-.00004.14818-.00979.62225-.00975.63163-.61376.63585-1.11131.00775-2.22269.00585-3.33405.00316-1.13576-.00274-1.05906.21214-1.05911-1.06259-.0002-5.75435.00083-11.5087.00152-17.26305.00002-.24697-.00125-.49397.00167-.7409.00858-.72828.00927-.73222.73981-.73548,1.01255-.00452,2.02524-.01045,3.03768.00017.54203.00569.59161.06159.60795.59612.0127.41537.00255.83142.00255,1.27313Z"/><path d="M223.04714,119.73742c0,.61756-.01173,1.23541.00447,1.85255.00954.36333-.09132.56719-.47324.71011-1.42122.53185-2.88915.90582-4.3922.94201-2.12536.05118-4.1757-.33782-5.95748-1.62944-.85242-.61794-1.55225-1.37066-2.05213-2.29894-.87739-1.62923-1.33324-3.36973-1.53319-5.21329-.23812-2.19543.04383-4.29899.95946-6.27865,1.32342-2.8613,3.58556-4.58178,6.71499-5.09949,1.82942-.30263,3.63657-.20266,5.39662.42544.6533.23314,1.26389.55336,1.85506.9152.26056.15948.39457.3073.25377.65088-.47688,1.16338-.92235,2.33977-1.37009,3.51489-.1043.27371-.2482.26098-.44796.11796-.4021-.28788-.82373-.54163-1.27263-.75234-.99349-.46637-2.04833-.59811-3.10914-.4225-1.30791.2165-2.34939.89029-2.94053,2.12574-1.14082,2.38441-1.13362,4.77972.14625,7.08915.80923,1.46017,2.1293,2.18328,3.84088,2.22158,1.26163.02821,2.37143-.36043,3.45123-.9433.90656-.48935.91395-.47718.9176.51622.00192.51873.00034,1.03749.00034,1.55623h.00791Z"/><path d="M227.3739,112.7894c.00004-3.08464.00002-6.16929.00011-9.25393,0-.17274.00927-.34595-.00049-.51811-.01851-.32575.15094-.43349.45073-.43199.78963.00396,1.5793-.00198,2.36897-.00316.64161-.00096,1.28324-.00528,1.92479.00013.71236.006.71427.01005.71974.7526.00382.51819.00156,1.03643.00167,1.55464.00087,4.51592-.00474,9.03185.00655,13.54774.0032,1.28149.06454,2.56276.08157,3.84436.00867.65075-.03075.6856-.65354.68915-1.43123.00815-2.86254.00812-4.2938.00238-.59392-.00239-.60395-.01289-.60467-.63376-.00366-3.18335-.00168-6.3667-.00163-9.55005Z"/><path d="M176.66039,112.71932c0-3.01137-.00004-6.02273.00009-9.0341.00002-.19747.0093-.39529.00029-.59231-.01593-.34823.1557-.48999.49037-.48966,1.43151.00137,2.86305.0003,4.29454-.00557.34307-.00141.49717.15909.48808.49617-.00465.17262.00145.34553.00161.5183.00547,6.14615.01082,12.29229.01611,18.43844.00013.1481-.00572.29638-.00007.44425.01346.35325-.17387.47731-.50356.47653-1.40694-.00332-2.81395.00814-4.2208-.00266-.51923-.00398-.5753-.06986-.57696-.6229-.00608-2.02402-.00127-4.04806-.00081-6.07209.00027-1.1848.00005-2.3696.00005-3.5544h.01106Z"/><path d="M100.31347,141.75803c-.12179,3.00184,2.37656,5.80188,5.50536,5.42018.8229-.00322,2.18124-.4275,2.60511.46475.21153.56771-.57729,1.15894-1.51642,1.32309-1.74474.39522-3.66185.14373-5.24088-.72313-6.37638-3.23339-3.90427-14.08526,3.34757-14.27608,1.17428-.01671,3.72736.12204,3.77076,1.53423-.13254.68784-1.12186.74555-1.76172.6538-3.39813-.88819-6.81052,1.90252-6.70926,5.41453l-.00052.18862Z"/><path d="M119.86639,143.25726c0,.56753-.01403,1.13553.00468,1.70245.0136.41202-.09247.77738-.30763,1.12151-.5829.93221-1.33568,1.70239-2.217,2.35429-.35149.25997-.7311.38459-1.17232.36684-.49269-.01982-.99132-.04655-1.47944.0049-1.1533.12156-2.06779-.38188-2.89266-1.07937-1.01047-.85445-1.55696-1.95085-1.54257-3.30027.00737-.6908.04683-1.38663-.0187-2.07154-.09255-.96738.30049-1.72788.87859-2.43071.45711-.55574,1.02816-.99239,1.59503-1.42673.31747-.24323.69037-.34861,1.10407-.36176.88591-.02814,1.76987-.02982,2.65555.00885.38795.01694.71618.13275,1.02145.36679.74785.57333,1.39763,1.2468,2.02279,1.94628.23983.26835.35333.58295.34804.9479-.00893.61674-.00245,1.2337-.00245,1.85058h.00258ZM117.92791,143.24091c.28505-1.13527-.20858-2.02631-.97244-2.83516-.20337-.21536-.39298-.43791-.63817-.60711-.1215-.08382-.23639-.17427-.39338-.1866-.87619-.06874-1.72587-.06926-2.36356.69462-.26758.32055-.5798.60342-.85843.9153-.30503.34141-.47595.72849-.44228,1.20931.0326.46565.05099.94027-.0009,1.40236-.14674,1.30671.99026,2.73248,2.20085,3.18427.89218.33294,1.65926.17428,2.29515-.49122.8638-.90405,1.43066-1.94303,1.17316-3.28576Z"/><path d="M124.35706,138.89697c.77234-.78741,1.58671-.77306,2.40648-.75372.61666.01456,1.23391.00209,1.85073.01218,1.09711.01794,2.14311,1.03778,2.22656,2.12388.20069,2.61176.03958,5.22716.09559,7.84027.01252.58389-.04408.63165-.63307.6355-1.62634.01064-1.35707.11385-1.36845-1.30731-.01679-2.0975-.01163-4.19516-.02322-6.29272-.00478-.86328-.65821-1.51332-1.53027-1.54485-1.47058-.05318-2.80705,1.12396-2.96532,2.58956-.19672,1.8216-.05687,3.64813-.10206,5.47177-.00427.17265.0039.34566-.00212.51821-.01942.5558-.02079.56749-.60115.57397-1.55396.01737-1.30742.08515-1.31271-1.29202-.01098-2.8624-.00281-5.72486-.001-8.58729.00045-.71947.00308-.71994.74473-.7281.1974-.00217.39681.01709.59187-.00445.39853-.04401.60162.13283.62341.74511Z"/><path d="M151.70408,143.4807c0,1.53114.00348,3.06228-.00165,4.5934-.00215.64365-.03537.68527-.66278.67736-.32531-.00411-.7049.1305-.9366-.25905-.10738-.18054-.25032-.09758-.37593-.0127-.38841.26248-.82416.29736-1.27587.29059-.79012-.01187-1.58093-.02744-2.37062-.00784-1.55787.03864-3.19056-1.37857-3.21281-3.14438-.02895-2.29637-.02537-4.59321-.02504-6.88984.00008-.55488.01952-.57034.60328-.5695,1.30903.00189,1.12751-.11815,1.13854,1.07295.01485,1.60508.01737,3.21029.0247,4.81545.00488,1.06794.53234,1.88383,1.28995,2.56209.44126.39502.99735.55069,1.58862.43251.53046-.10603,1.05992-.23311,1.57448-.39864.67954-.21859.89857-.53211.90171-1.25669.00907-2.09907.00412-4.19821.00539-6.29731.00012-.1975.0039-.39505.00852-.59251.00477-.20381.10487-.32005.31409-.33169.02465-.00138.04941-.00232.07389-.00531,1.26424-.15505,1.33588-.09261,1.33634,1.17224.0005,1.38296.00011,2.76592.00011,4.14887h.00168Z"/><path d="M136.30258,148.79486c-.66611.00168-1.33515.0272-1.98381-.16614-.74414-.22176-.98755-.60359-.94327-1.36013.02254-.38507.20248-.50308.55993-.51821.55164-.02337,1.08576.04964,1.60072.23182.90605.32052,1.74595.11652,2.56727-.28381.22398-.10919.42378-.25463.58726-.44403.37243-.43147.38941-.83601.01232-1.25929-.43321-.48627-.92755-.87503-1.61492-.96197-.43817-.05542-.86914-.17282-1.30084-.27322-.67282-.15647-1.23448-.51891-1.65973-1.04649-.82863-1.02803-.86032-2.14468.2666-3.56238.64352-.80956,1.57242-1.04986,2.56782-1.10969.81827-.04917,1.62485.07682,2.43624.12521.37933.02263.68267.26835.99627.46192.1075.06635.20196.18042.17082.30698-.10755.43708-.30619.84114-.63206,1.14916-.15986.15109-.38413-.01823-.54934-.08975-.78918-.34159-1.60862-.44358-2.45825-.39312-.62451.03711-1.36265.82559-1.33836,1.44503.01913.4882.41402.86936,1.04782.97028.90456.14404,1.79105.34859,2.62392.73843.67273.31489,1.26502.77212,1.41017,1.5192.23612,1.21533.22995,2.39276-.83769,3.33089-1.02885.90404-1.71352,1.18106-3.52888,1.18929Z"/><path d="M159.74505,143.45296c0-.91312-.01015-1.8264.00494-2.73927.00612-.37008-.11548-.55301-.50729-.5296-.29503.01762-.59217-.00342-.88816.00285-.33416.00707-.51121-.13686-.5013-.48272.00282-.09861-.00031-.19741-.00141-.29611-.01301-1.16638-.01374-1.18005,1.15253-1.23847.36741-.0184.60255-.16969.77105-.4719.24228-.43453.4385-.8839.45446-1.39244.00387-.12331.00642-.24705.01895-.36962.06745-.65882.64172-.98238,1.25282-.69849.23895.111.25491.34952.2581.57182.00814.5675-.00342,1.13529.0061,1.70275.01084.64566.01703.64908.67406.65528.46881.00442.93816.00909,1.40652-.00764.33454-.01195.51181.09829.49826.45962-.01388.36968-.01135.74043-.00195,1.11037.00789.31053-.12424.44835-.43922.44272-.54276-.0097-1.08595-.00918-1.62871.00103-.56124.01057-.59077.03167-.59456.5843-.00965,1.40663-.01341,2.81347.00255,4.21997.00358.31569.0664.63949.15573.94376.25033.85251,1.15279,1.13057,1.97451,1.08288.21951-.01275.43508-.08278.65433-.1129.42838-.05885.50345.00181.56008.42428.18008,1.34375.08955,1.45039-1.23374,1.45493-.56705.00195-1.12807-.03493-1.69372-.10805-1.13259-.14644-2.49226-1.28751-2.36602-2.76719.06897-.80852.01231-1.62775.01231-2.44215h-.00121Z"/><path d="M156.73964,141.03284c0,2.32139.00249,4.6428-.0014,6.96419-.00128.76591-.03136.79948-.79103.79436-1.35888-.00918-1.22626.18659-1.22433-1.21119.00606-4.39572.00195-8.79145.0019-13.18718,0-.19756.00847-.39541.00034-.59261-.01146-.27814.11202-.41321.39198-.40824.12334.0022.24725.00002.37022-.00925q1.26099-.09508,1.25766,1.13027c-.00179,2.17322-.00051,4.34643-.00051,6.51965h-.00483Z"/><path d="M179.3784,95.30425c1.5986.01962,2.75162,1.22765,2.75231,2.85358.00063,1.47237-1.28199,2.89971-2.80769,2.85771-2.00019-.05509-3.03404-1.59194-2.98401-2.92428.0582-1.54996,1.39409-2.80721,3.03939-2.78701Z"/><path d="M230.00344,95.30991c1.17644-.08765,2.81502,1.09572,2.8064,2.84462-.00746,1.51347-1.37668,2.90399-2.89086,2.87141-1.55208-.0334-2.87168-1.12957-2.95233-2.90006-.06617-1.45239,1.45987-2.8266,3.03679-2.81597Z"/></svg>