<?xml version="1.0" encoding="UTF-8"?><svg id="a" xmlns="http://www.w3.org/2000/svg" viewBox="0 0 250 250"><defs><style>.b{fill:#fff;}</style></defs><path d="M165.50154,119.40913v-.88638c-.00033-10.28463-.00059-20.56926-.00132-30.85389,0-.15695-.00061-.31417-.00907-.47081-.01633-.30275-.17212-.48306-.47805-.52371-.07777-.01033-.15567-.02837-.23351-.02833-3.40184.00175-6.79864.04716-10.14676.77912-.96217.21034-1.73715.68625-2.40654,1.38128-1.02283,1.062-1.86561,2.25733-2.61616,3.52026-2.43957,4.10504-4.52193,8.37268-5.90934,12.95865-.32801,1.08422-.3471,1.07512-1.5133,1.07912-.6017.00206-1.2034.01644-1.80503.02879-.82697.017-.98145-.1204-.98021-.9118.01146-7.37961.02516-14.75921.03685-22.13882.00079-.49715-.0227-.99465-.01088-1.49141.01327-.55823.16971-.69032.70509-.68971,6.85532.0077,13.71064.01686,20.56596.01779,10.44157.00143,20.88312.00005,31.32469-.00673,5.62636-.00365,11.25274-.02188,16.87909-.03009.35732-.00053.71471.02892,1.08971.04519v25.22639h-3.91334c-.13947-.3644-.28226-.69457-.39367-1.03501-1.53525-4.69149-3.5315-9.17268-6.14501-13.3659-.52392-.84062-1.13069-1.63577-1.75626-2.40556-1.30557-1.60659-3.00992-2.42014-5.08379-2.592-2.55706-.2119-5.11357-.35449-7.67882-.35537-1.1871-.00041-1.19218-.00438-1.19237,1.16091-.00142,7.90328-.00104,15.80656-.00184,23.70984-.00023,2.35528-.00234,4.71056-.00353,7.06584-.00013.25959,0,.51919,0,.76256-.61524.1854-17.26341.23541-18.3226.04977Z"/><path d="M60.48892,119.3066c-.64555.19799-19.39731.19745-20.16156-.00771.10517-.8085.16961-1.63861.32782-2.45045.32997-1.69308.66642-3.38705,1.07701-5.06184,1.10028-4.48804,2.60773-8.83583,4.89439-12.86493,1.92748-3.39623,4.1108-6.63226,6.91544-9.38428,1.64329-1.61246,3.43889-3.05365,5.34226-4.36051,1.51272-1.03863,3.09054-1.97268,4.75046-2.73035,2.08861-.95338,4.19813-1.86224,6.47136-2.36013,1.6357-.35825,3.2506-.76567,4.92759-.91489,2.42882-.21612,4.852-.33807,7.2805-.034.15577.0195.31205.05189.46791.05092,2.22613-.01383,4.35535.53593,6.46312,1.15847,1.20184.35497,2.37454.81353,3.54841,1.25709,1.79075.67664,3.49471,1.52896,5.11807,2.54966.82409.51815,1.14973.4508,1.85638-.25922.68245-.6857,1.36005-1.37721,2.01422-2.08965.38255-.41662.81396-.60269,1.38412-.58472.91445.02885,1.83131-.02211,2.74596.00347.77585.02169.80681.06994.81182.81379.04102,6.09617.07883,12.19236.11568,18.28855.02452,4.05514.046,8.1103.06848,12.16546.00157.28392.00021.56786.00021.9592-.48444.01741-.91565.0405-1.34709.0467-.67784.00973-1.35781-.02298-2.03324.01978-.70821.04484-.78735.03119-.99218-.67818-.41339-1.43168-.80548-2.86952-1.2192-4.3011-1.24555-4.30991-2.88172-8.47464-4.97167-12.43669-1.59363-3.02117-3.58782-5.77701-6.31912-7.922-1.8109-1.42217-3.77897-2.57267-6.01647-3.11557-1.23206-.29893-2.53724-.33176-3.81402-.40397-2.83134-.16014-5.45224.58481-7.8453,2.06814-1.47255.91274-2.76531,2.06483-3.86927,3.41078-.98142,1.19655-1.86246,2.45966-2.5362,3.86097-1.18047,2.45526-2.24501,4.95856-2.9524,7.59305-1.14905,4.27936-1.81443,8.64829-2.25092,13.05093-.15197,1.53284-.1707,3.07889-.25258,4.66322Z"/><path d="M41.88891,141.54584h19.97336c.07474.19474.16395.35482.19768.52585.5689,2.8842,1.50983,5.65832,2.57891,8.38385.89014,2.26935,2.01118,4.42498,3.69858,6.23717.51556.55369.91875,1.22293,1.4775,1.72293.85389.76411,1.82086,1.4003,2.69844,2.13989,1.12622.94918,2.49106,1.38851,3.82483,1.9035.46329.17886.92157.37785,1.39724.51543.44821.1296.91282.21891,1.37637.27563.9598.1175,1.92371.20143,2.88587.29959.13004.01326.26093.04834.38956.04096,1.9306-.11072,3.86947-.14779,5.72687-.8035.95745-.338,1.94821-.55152,2.88647-.98081,2.26635-1.03688,4.24122-2.45943,6.0144-4.19253,2.58197-2.52357,4.72015-5.3866,6.49191-8.52154.6939-1.22778,1.28113-2.51579,1.91954-3.77504.12847-.25338.26869-.5008.42255-.78636.17549.10713.31115.17801.43389.26676,1.12306.81196,2.23493,1.63981,3.37081,2.43335.3395.23717.43988.44926.26316.84229-1.84754,4.10891-3.77281,8.17416-6.60345,11.72739-2.18283,2.74004-4.73316,5.06692-7.64104,7.0418-1.54746,1.05095-3.2048,1.86934-4.8498,2.71131-.98084.50203-1.99452.99541-3.13921,1.16901-.94661.14355-1.85366.53552-2.78735.78304-.37507.09945-.77316.1254-1.16304.15343-1.74756.12569-3.49479.30789-5.24438.33766-1.48627.02526-2.97715-.10792-4.46326-.21053-2.36017-.16303-4.6642-.64997-6.90892-1.3794-3.55167-1.15409-6.88782-2.74117-9.92372-4.9526-3.68182-2.68192-6.72734-5.94841-9.25805-9.72146-1.47959-2.20592-2.62169-4.58534-3.66-7.01496-.89384-2.09157-1.68849-4.22435-2.23343-6.44007-.04861-.19765-.08341-.3987-.15229-.73202Z"/><path d="M154.39714,169.55637c0-.82433.00154-1.60431-.00063-2.38431-.0011-.39229-.01944-.78481-.01146-1.17685.01512-.74455.10557-.86562.8326-.962.77735-.10309,1.56302-.14378,2.34013-.24835.98433-.13244,1.96706-.28322,2.94433-.46007,1.13073-.20463,2.13139-.72596,3.02146-1.4303,1.14324-.90471,1.72601-2.1489,1.93802-3.56562.09255-.61842.13604-1.2499.13621-1.87549.00138-4.96985-.01305-9.93968-.02252-14.90953-.00054-.28636-.00006-.57272-.00006-.84498.57518-.178,16.85266-.24679,18.22537-.07665,0,.28759.00063.59143-.0001.89528-.01114,4.68219-.03027,9.36438-.02601,14.04656.00071.78049.01865,1.57822.17459,2.33803.42409,2.06635,1.67027,3.52671,3.59014,4.35723,2.00189.86603,4.11862,1.35282,6.27016,1.68741.2324.03613.46588.06701.6964.11271.1246.02473.24398.0757.41751.13146v4.29796c-.55766.17522-39.28563.25462-40.52614.06749Z"/><path d="M85.89134,128.24405c.7057-.24392,1.39206-.55702,2.1693-.50537.23099.01535.46951-.0219.6995-.0633.76588-.1379,1.51442-.04716,2.2405.1939,1.29047.42844,1.86834,1.35241,1.73299,2.71172-.12431,1.24839-1.02344,2.18435-2.29829,2.28152-.61622.04696-1.24477-.0591-1.86703-.10547-.20373-.01518-.40521-.06059-.60372-.09156-.35891,1.36233-.1319,1.91412,1.05502,2.2249h-2.86065c.20251-.10824.54829-.18487.68894-.39731.15422-.23292.15815-.59088.15993-.89475.00786-1.33444-.00751-2.66902-.01682-4.00354-.00777-1.11421-.02354-1.13122-1.09968-1.35074ZM87.89763,130.23499h.00446c0,.23482-.0007.46963.00019.70445.0009.2348-.00475.47001.00676.70433.03063.62317.05964.70231.68753.85984.42145.10574.87352.13886,1.30968.12649.91224-.02587,1.49814-.52968,1.79205-1.37733.6543-1.88708-.80825-3.61505-2.825-3.3435-.8891.11971-.9553.18866-.97414,1.07345-.00888.41725-.00152.83484-.00152,1.25227Z"/><path d="M167.10282,132.88155h-2.42654c.64836-.1309.76989-.60633.77233-1.16008.0018-.41305.00035-.82612.00035-1.30125-.8695-.13331-1.66161-.07209-2.55491-.04731,0,.63822-.05055,1.23535.02348,1.8166.03218.25268.32043.47274.47692.68648h-2.14604c.69479-.22112.80396-.64344.80168-1.13715-.00473-1.01978-.00656-2.03969.0045-3.05939.00544-.50015-.09454-.91816-.64532-1.07713h2.0284c-1.02348.64488-.32934,1.61796-.62494,2.43177.91046.28502,1.69912.13349,2.50996.05416.19788-.61282.19391-1.21834.04754-1.79296-.06956-.27317-.37722-.48571-.54292-.68473h2.14796c-.64551.16432-.77149.52365-.76698.9818.01033,1.04595-.00945,2.09226.00542,3.13811.00966.6781.1364.83417.8891,1.15108Z"/><path d="M76.38432,129.98965c.02703-.35317.06293-.58119.05888-.8085-.02546-1.42916-1.17132-1.61362-2.08306-1.33915-.12513.03767-.23178.18806-.31158.30951-.06924.1054-.09161.24278-.12885.36776-.0813.27279-.20429.49998-.54544.41154-.2381-.06171-.31908-.43359-.16734-.74568.17935-.36885.52571-.52919.89189-.55732.57095-.04387,1.15496-.07181,1.72019-.00092.90325.1133,1.4312.81149,1.46101,1.84874.02253.78387.01657,1.5689.00734,2.35322-.00493.41949.05369.78056.59885.84182-.77094.69988-1.01741.68076-1.57945-.06251-.381.15452-.75581.32736-1.14461.45885-.65551.2217-1.292.07806-1.90613-.17449-.55195-.22699-.89918-.62238-.89771-1.25136.00144-.61229.29704-1.09857.84487-1.29728.55416-.20101,1.16244-.27349,1.75396-.34401.43596-.05196.8831-.01021,1.42717-.01021ZM76.42604,130.26303c-.74238,0-1.37153-.06784-1.97959.01648-.83627.11595-1.21248.75643-1.05929,1.61476.12359.69245.77576,1.1562,1.52775.98844.41698-.09304.81953-.31844,1.18269-.55473.16648-.10831.29287-.37946.31402-.5892.04648-.46108.01442-.93006.01442-1.47574Z"/><path d="M178.13608,133.20055c-1.74468-.00906-3.06857-1.21334-3.05264-2.7831.01359-1.33986,1.04589-2.90804,3.06959-2.85743,1.60159.04005,2.95975,1.32137,2.93926,2.85128-.02417,1.80178-1.62375,2.90348-2.95621,2.78926ZM176.0772,130.36679c-.0189.89259.22836,1.6381.90854,2.18976.7739.62769,1.82159.54256,2.45805-.18316.94002-1.07186.84743-3.11351-.18523-4.08494-.75197-.70739-1.71144-.68849-2.43445.04882-.5645.57568-.77867,1.27842-.74691,2.02951Z"/><path d="M139.6349,131.42032c-.16156.72104-.63376,1.13001-1.22328,1.38441-.94016.4057-1.88778.4555-2.88527.085-2.10574-.7821-2.03229-3.66923-.65127-4.7225.97126-.74077,2.50038-.87,3.54072-.25855.77701.45668,1.09496,1.14149,1.0772,2.08968-1.53537.29932-3.08954-.16479-4.63133.23951-.1881.72587.14582,1.30968.58048,1.83012,1.03794,1.24279,2.62494,1.11356,3.46096-.26447.16229-.26751.26017-.6052.7318-.3832ZM138.56847,129.93174c.13458-1.08552-.91038-2.3558-1.95481-2.22222-.9705.12413-1.76111,1.19218-1.58783,2.22222h3.54264Z"/><path d="M50.61007,131.878c-.38893.82444-1.12373,1.16125-1.97588,1.28396-.88558.12753-1.71847-.08013-2.47028-.56104-1.00488-.64281-1.3073-1.60659-1.10686-2.72444.21466-1.19717.983-1.93909,2.13811-2.25575.91648-.25124,1.82368-.18967,2.63029.35762.21449.14552.36997.41953.47231.66763.0388.09407-.11931.326-.24465.40846-.0678.0446-.27083-.07284-.38407-.15625-.07481-.05509-.10373-.17739-.14425-.27338-.53495-1.26721-2.18869-1.14439-2.97568-.36058-.9234.91968-1.06386,3.55681.71312,4.41222.88783.42739,1.88205.29315,2.60694-.40033.19484-.18639.38503-.37763.57735-.56666.05452.05618.10904.11236.16356.16854Z"/><path d="M105.1878,127.63612c.03668.33021.06746.60729.11264,1.0139-.37857-.31107-.63121-.62651-.95782-.75751-.34501-.13838-.76052-.10097-1.20107-.14608-.03361.25645-.07994.4549-.08231.65388-.0121,1.01885-.01805,2.03784-.01617,3.05677.00195,1.0491.10545,1.1656,1.27332,1.39489h-3.27157c.99521-.24628,1.13365-.40853,1.14285-1.43297.01052-1.17286.00244-2.3459.00244-3.52428-.9976-.40648-1.67869-.03927-2.21615.85371q-.05832-.53194.14634-1.11232h5.06748Z"/><path d="M153.53407,132.87199h-2.37851c.15468-.11645.35641-.19282.40522-.32547.05297-.14395.01947-.38237-.0738-.50617-.33308-.44213-.45488-1.06903-1.07519-1.27203-.05394-.01765-.09467-.10557-.12234-.1692-.49987-1.14953-1.28285-2.09571-2.1489-2.99841h1.75102c-.42017,1.09779.57808,1.53801.99566,2.45811.46433-.61548.86178-1.06113,1.1545-1.56732.13013-.22505.04903-.57225.06497-.88674h1.31171c-.88892.5916-1.42778,1.46336-2.08865,2.21869-.0963.11008-.09141.42276-.00439.55981.41889.65971.84905,1.31846,1.34444,1.9206.2214.2691.60534.40447.86425.56813Z"/><path d="M63.2636,128.55697c-.50162,1.30418-.95982,2.62807-1.74081,3.97081-.83006-1.39579-1.30158-2.82642-2.01563-4.16235-.34217.19508-.23146.4537-.21322.6601.08276.93653.1927,1.87064.27853,2.80694.03911.42667.16833.79158.639,1.02824h-1.95105c.48958-.11589.69733-.46273.70322-.91304.01538-1.17622.01003-2.35307-.01343-3.52915-.005-.25056-.12187-.49891-.19719-.78648h1.10362c.64221,1.27415.99992,2.70487,1.86448,4.07961.18902-.39093.3158-.65999.44845-.92612.36771-.73768.73786-1.47415,1.10706-2.21109,0,0-.01302-.01747-.01302-.01747Z"/><path d="M125.97957,127.60378c.08915.38096.17084.73003.29264,1.25049-.41914-.40854-.67256-.78211-1.0249-.9631-.34662-.17806-.79359-.16076-1.23879-.23636-.06.26187-.1311.43129-.13255.6013-.00992,1.15111-.02099,2.30265.00053,3.45344.01431.76481.16426.91904,1.01585,1.14911h-2.77358c.22371-.10142.5673-.15205.70724-.34806.16383-.22947.19697-.58431.20517-.88698.02836-1.04591.02557-2.09279.0242-3.13929-.0003-.22772-.04385-.45536-.06844-.69228-1.02144-.25059-1.72146.06693-2.16781,1.11628-.22048-.57417.08492-.92839.06988-1.30457h5.09055Z"/><path d="M63.27662,128.57444c.07996-.31651.15992-.63301.24296-.9617h1.09561c-.04612.41602-.12401.81856-.12893,1.22199-.01239,1.01593-.01277,2.033.02275,3.04819.02393.68402.11371.75546.85538.98253h-2.46868c.67905-.15641.86301-.60891.85192-1.27437-.01819-1.09219.04962-2.18571.07197-3.27885.00237-.11609-.0565-.23343-.13421-.53126-.19587.35548-.31062.56374-.42358.774.00178.00199.0148.01947.0148.01947Z"/><path d="M149.80952,131.37521c.83147.83147-.75316.78645-.07052,1.46354h-1.59732c.26807-.21495.61862-.46107.92604-.75267.29115-.27618.47598-.40797.7418-.71086Z"/><path class="b" d="M87.89763,130.23499c0-.41743-.00736-.83502.00152-1.25227.01883-.88479.08503-.95374.97414-1.07345,2.01675-.27154,3.47929,1.45642,2.825,3.3435-.29391.84765-.87981,1.35146-1.79205,1.37733-.43616.01236-.88822-.02075-1.30968-.12649-.62788-.15753-.65689-.23668-.68753-.85984-.01151-.23432-.00586-.46953-.00676-.70433-.00089-.23482-.00019-.46963-.00019-.70445h-.00446Z"/><path class="b" d="M76.42604,130.26303c0,.54568.03206,1.01466-.01442,1.47574-.02114.20974-.14754.48089-.31402.5892-.36316.23629-.76571.4617-1.18269.55473-.75199.16777-1.40416-.29598-1.52775-.98844-.15319-.85833.22302-1.49881,1.05929-1.61476.60805-.08431,1.2372-.01648,1.97959-.01648Z"/><path class="b" d="M176.0772,130.36679c-.03176-.75109.18241-1.45384.74691-2.02951.72301-.73732,1.68248-.75622,2.43445-.04882,1.03266.97143,1.12524,3.01308.18523,4.08494-.63646.72572-1.68415.81085-2.45805.18316-.68018-.55167-.92744-1.29717-.90854-2.18976Z"/><path class="b" d="M138.56847,129.93174h-3.54264c-.17329-1.03003.61733-2.09809,1.58783-2.22222,1.04443-.13359,2.0894,1.1367,1.95481,2.22222Z"/></svg>